<svg xmlns="http://www.w3.org/2000/svg" width="346" height="328">
    <g transform="matrix(-1.2870228262350354,0,0,1.2870228262350354,298.0587174173946,168.9197206152953)">
        <path
            fill="#a0775c"
            d="m187.177595,15.764823a17.48624,17.48624 0 0 0 -4.96,4.84l0.01,0.22a4.37748,4.37748 0 0 1 3.76,1.16a23.41009,23.41009 0 0 1 5.27,-4.97c0.14,-0.1 0.29,-0.2 0.43,-0.29l-0.06,-0.1c-0.5,-1.52 -1.91,-2.5 -4.45,-0.86z"
        />
        <path
            fill="#a0775c"
            d="m192.827595,20.204823a3.07356,3.07356 0 0 1 2.98,-0.67l0.04,-0.44c1.1,-2.53 -1.32,-4.1 -4.16,-2.37c-0.14,0.09 -0.29,0.19 -0.43,0.29a23.41009,23.41009 0 0 0 -5.27,4.97a3.06641,3.06641 0 0 1 0.69,2.03c0,1.27 -0.62,2.16 -2,3.08a12.68862,12.68862 0 0 1 -5.15,1.95c3.88,-0.22 5.24,0.06 5.15,-0.03a54.20041,54.20041 0 0 1 8.15,-8.81z"
        />
        <path
            fill="#a0775c"
            d="m176.947595,29.244823c0.96,-0.09 1.82,-0.16 2.58,-0.2a12.68862,12.68862 0 0 0 5.15,-1.95c1.38,-0.92 2,-1.81 2,-3.08a3.06641,3.06641 0 0 0 -0.69,-2.03a4.37748,4.37748 0 0 0 -3.76,-1.16a16.90223,16.90223 0 0 0 -4.97,1.19a9.88624,9.88624 0 0 1 -3.83,0.25a23.95558,23.95558 0 0 0 -11.75,-1.95c-4.98,0.45 -9.74,2.99 -13,2.7l-6,0l0,14l11,0c2,0 9,4 13,4s19.05,-4.46 20,-5c1,-0.56 6.95,-9.04 9.75,-12.67c1.43,-1.85 0.7,-3.35 -0.62,-3.81a3.07356,3.07356 0 0 0 -2.98,0.67a54.20041,54.20041 0 0 0 -8.15,8.81c0.09,0.09 -1.27,-0.19 -5.15,0.03a11.05622,11.05622 0 0 1 -1.35,0.14q-0.6,0.03 -1.23,0.06z"
        />
        <path
            fill="#916953"
            d="m166.865095,36.827523c4,0 18.86249,-3.27271 19.8125,-3.81268c1,-0.56 4.625,-6.24982 7.6875,-9.81232c0.40743,-0.47395 2.8385,-0.8457 1.75,0.5625c-2.8,3.63 -8.4375,11.68982 -9.4375,12.24982c-0.95,0.54 -16,5 -20,5s-11,-4 -13,-4l-11,0l0,-3l11,0c2,0 9.1875,2.81268 13.1875,2.81268z"
        />
        <path
            fill="#ad8064"
            d="m148.677595,23.014843c3.26,0.29 8.02,-2.25 13,-2.7a23.95465,23.95465 0 0 1 11.75,1.95a9.88753,9.88753 0 0 0 3.83,-0.25a16.90008,16.90008 0 0 1 4.97,-1.19a4.3776,4.3776 0 0 1 3.76,1.16a3.06627,3.06627 0 0 1 0.69,2.03a2.94724,2.94724 0 0 1 -0.36316,1.45825a2.68689,2.68689 0 0 0 -0.32684,-0.48828a4.3776,4.3776 0 0 0 -3.76,-1.16a16.90008,16.90008 0 0 0 -4.97,1.19a9.88753,9.88753 0 0 1 -3.83,0.25a23.95465,23.95465 0 0 0 -11.75,-1.95c-4.98,0.45 -9.74,2.99 -13,2.7l-6,0l0,-3l6,0.00003z"
        />
        <path
            fill="#ad8064"
            d="m195.807605,22.534803a3.07354,3.07354 0 0 0 -2.98,0.67a36.00553,36.00553 0 0 0 -6.44166,7.18522c-2.875,-0.16667 -0.875,-3 0.256,-3.85919a52.08874,52.08874 0 0 1 6.18573,-6.326a3.07354,3.07354 0 0 1 2.98,-0.67c1.24469,0.43378 1.9408,1.79681 0.81989,3.50153a2.23415,2.23415 0 0 0 -0.81996,-0.50156z"
        />
        <path
            fill="#505070"
            d="m176.677505,30.265023a1,1 0 0 1 0,-2a0.89927,0.89927 0 0 1 0.12012,-0.01025l0.1499,-0.00977a0.9999,0.9999 0 0 1 0.02441,1.99951c-0.04248,0.00342 -0.1499,0.01025 -0.17432,0.01025a0.89926,0.89926 0 0 1 -0.12011,0.01026z"
        />
        <path
            fill="#333"
            d="m166.677505,42.015023c-2.53906,0 -5.91113,-1.37256 -8.88672,-2.5835a20.06536,20.06536 0 0 0 -4.11328,-1.4165l-10,0a1,1 0 1 1 0,-2l10,0c0.97656,0 2.4126,0.56494 4.86719,1.564c2.6665,1.08541 5.98535,2.436 8.13281,2.436c3.6626,0 18.32812,-4.27637 19.51855,-4.876c0.62451,-0.46484 3.86621,-4.877 6.01123,-7.79688c1.2959,-1.76416 2.51953,-3.43018 3.42822,-4.6084a1.92331,1.92331 0 0 0 0.53516,-1.60156a1.05136,1.05136 0 0 0 -0.69238,-0.65283a2.07984,2.07984 0 0 0 -1.99756,0.48242a53.55246,53.55246 0 0 0 -7.92529,8.54932a1.189,1.189 0 0 1 -1.27881,0.50635a37.22726,37.22726 0 0 0 -4.69238,0.02588c-0.75146,0.03955 -1.59814,0.1084 -2.543,0.19727a1,1 0 0 1 -0.1875,-1.99121c0.9751,-0.0918 1.84912,-0.1626 2.62109,-0.20312a39.87811,39.87811 0 0 1 4.71,-0.0376a55.19968,55.19968 0 0 1 7.99121,-8.5625a4.08506,4.08506 0 0 1 3.95459,-0.85742a3.01554,3.01554 0 0 1 1.957,1.97412a3.8019,3.8019 0 0 1 -0.86914,3.39355c-0.89355,1.15869 -2.11084,2.81543 -3.39941,4.56982c-4.34131,5.90918 -5.91113,7.9458 -6.65283,8.36133c-1.19531,0.67971 -16.48094,5.12746 -20.48875,5.12746z"
        />
        <path
            fill="#333"
            d="m176.946545,30.245023a1.00008,1.00008 0 0 1 -0.04687,-1.999l1.228,-0.05957a10.02974,10.02974 0 0 0 1.23193,-0.12744a11.77253,11.77253 0 0 0 4.76416,-1.79687c1.29348,-0.86284 1.55374,-1.49956 1.55374,-2.24712a2.12157,2.12157 0 0 0 -0.4502,-1.38086a3.51974,3.51974 0 0 0 -2.93555,-0.81152a16.05394,16.05394 0 0 0 -4.68066,1.12793a10.7175,10.7175 0 0 1 -4.272,0.31055a0.99282,0.99282 0 0 1 -0.25537,-0.05713c-0.18945,-0.06934 -0.40039,-0.15088 -0.63232,-0.24023a22.30419,22.30419 0 0 0 -10.68503,-1.65284a34.49368,34.49368 0 0 0 -6.60889,1.48975c-2.39893,0.71 -4.665,1.38086 -6.56836,1.21045l-5.91162,0.0039a1,1 0 0 1 0,-2l6,0c1.61426,0.14209 3.70166,-0.478 5.91309,-1.13232a36.53411,36.53411 0 0 1 6.99707,-1.564a24.17232,24.17232 0 0 1 11.584,1.7793q0.25635,0.09888 0.47559,0.18213a8.91992,8.91992 0 0 0 3.25928,-0.20166a18.00134,18.00134 0 0 1 5.26804,-1.25245c2.55078,-0.16406 3.88916,0.72607 4.56641,1.501a4.05828,4.05828 0 0 1 0.93652,2.688a4.623,4.623 0 0 1 -2.44531,3.91162a13.70756,13.70756 0 0 1 -5.55811,2.10738a11.9439,11.9439 0 0 1 -1.4502,0.1499l-1.22852,0.06006l-0.04882,0.00104z"
        />
        <path
            fill="#333"
            d="m168.506605,33.094613a1,1 0 0 1 -0.19531,-1.98047a8.62674,8.62674 0 0 0 3.83252,-2.06006a1.00909,1.00909 0 0 1 0.49951,-0.26807a28.33939,28.33939 0 0 1 3.9668,-0.51855a0.99983,0.99983 0 1 1 0.13477,1.99512a26.98551,26.98551 0 0 0 -3.42529,0.42725a10.49,10.49 0 0 1 -4.61572,2.38525a1.01182,1.01182 0 0 1 -0.19728,0.01953z"
        />
        <path
            fill="#333"
            d="m185.986585,22.984753a1.00006,1.00006 0 0 1 -0.83447,-1.54932a24.18954,24.18954 0 0 1 5.52,-5.23145c0.15771,-0.1123 0.32227,-0.22217 0.47607,-0.3208c1.85645,-1.13135 3.81934,-1.17822 5.02051,-0.13135a3.1377,3.1377 0 0 1 0.5957,3.7417a1,1 0 1 1 -1.834,-0.79785c0.12988,-0.29883 0.38281,-1.03662 -0.07617,-1.43652c-0.41992,-0.36621 -1.42773,-0.42285 -2.64648,0.31982c-0.10693,0.06885 -0.24219,0.15918 -0.36914,0.25a22.65226,22.65226 0 0 0 -5.01559,4.70504a0.9987,0.9987 0 0 1 -0.83643,0.45073z"
        />
        <path
            fill="#333"
            d="m182.177505,21.634653a1.00023,1.00023 0 0 1 -0.66016,-1.75146c0.019,-0.02881 0.061,-0.08887 0.11377,-0.16211a17.86336,17.86336 0 0 1 5.00537,-4.79687a4.48162,4.48162 0 0 1 3.93018,-0.83545a3.35114,3.35114 0 0 1 2.01074,2.22363a0.9998,0.9998 0 1 1 -1.89941,0.625a1.44285,1.44285 0 0 0 -0.77832,-0.96289a2.79393,2.79393 0 0 0 -2.17969,0.63037a15.94877,15.94877 0 0 0 -4.46289,4.28076a4.78921,4.78921 0 0 1 -0.30908,0.40234a1.12092,1.12092 0 0 1 -0.77051,0.34668z"
        />
        <path
            fill="#434242"
            d="m153.617595,37.014823l0,5a2.00588,2.00588 0 0 1 -2,2l-6.33,0a2.0077,2.0077 0 0 1 -1.98,-1.68a116.1831,116.1831 0 0 1 -1.62,-21.34a2.00175,2.00175 0 0 1 2,-1.98l7.93,0a2.00588,2.00588 0 0 1 2,2l0,16z"
        />
        <path
            fill="#333"
            opacity="0.3"
            d="m143.307605,39.334783a1.97682,1.97682 0 0 0 1.98,1.68005l6.33,0a2.00591,2.00591 0 0 0 2,-2l0,3a2.00591,2.00591 0 0 1 -2,2l-6.33,0a2.024,2.024 0 0 1 -1.98,-1.68005c-0.63001,-3.25726 -0.19251,-4.38226 0,-3z"
        />
        <path
            fill="#4c4c4c"
            d="m151.617605,22.014843l-7.93,0a2.0017,2.0017 0 0 0 -2,1.98l-0.00049,0.07428c-0.0108,-1.11823 -0.00739,-2.146 0.00049,-3.07428a2.0017,2.0017 0 0 1 2,-1.98l7.93,0a2.00587,2.00587 0 0 1 2,2l0,3a2.00587,2.00587 0 0 0 -2,-2z"
        />
        <path
            fill="#333"
            d="m151.617445,45.015023l-6.33008,0a3.01392,3.01392 0 0 1 -2.96484,-2.50732a116.84274,116.84274 0 0 1 -1.63477,-21.521a3.00818,3.00818 0 0 1 3,-2.97168l7.92969,0a3.00328,3.00328 0 0 1 3,3l0,21a3.00328,3.00328 0 0 1 -3,3zm-7.92969,-25a1.00216,1.00216 0 0 0 -1,0.98877a114.93187,114.93187 0 0 0 1.60547,21.16357a1.0042,1.0042 0 0 0 0.99414,0.84766l6.33008,0a1.0013,1.0013 0 0 0 1,-1l0,-21a1.0013,1.0013 0 0 0 -1,-1l-7.92969,0z"
        />
        <path
            fill="#333"
            d="m148.619885,40.015023a1.03393,1.03393 0 0 1 -0.71,-0.29a1.18976,1.18976 0 0 1 -0.22021,-0.33008a0.9894,0.9894 0 0 1 -0.06979,-0.37992a1.00645,1.00645 0 0 1 0.29,-0.71a1.026,1.026 0 0 1 0.8999,-0.27a0.60377,0.60377 0 0 1 0.18994,0.05957a0.5531,0.5531 0 0 1 0.16992,0.09033a0.60247,0.60247 0 0 1 0.1499,0.12012a1.01684,1.01684 0 0 1 0.30029,0.71a1.03758,1.03758 0 0 1 -0.30029,0.71a0.95172,0.95172 0 0 1 -0.1499,0.11963a0.5531,0.5531 0 0 1 -0.16992,0.09033a0.61731,0.61731 0 0 1 -0.18994,0.06006a1.25383,1.25383 0 0 1 -0.1899,0.01996z"
        />
    </g>
    <path
        fill="#a0775c"
        d="m293.662953,188.970958a22.809228,22.809228 0 0 0 -6.469874,6.313345l0.013044,0.28697a5.710029,5.710029 0 0 1 4.904582,1.513116a30.536358,30.536358 0 0 1 6.874241,-6.482918c0.182617,-0.130441 0.378279,-0.260882 0.560896,-0.378279l-0.078265,-0.130441c-0.652205,-1.982703 -2.491423,-3.261025 -5.804625,-1.121793z"
    />
    <path
        fill="#a0775c"
        d="m301.03287,194.762539a4.009183,4.009183 0 0 1 3.887142,-0.873955l0.052176,-0.57394c1.434851,-3.300158 -1.721821,-5.348081 -5.426346,-3.091452c-0.182617,0.117397 -0.378279,0.247838 -0.560896,0.378279a30.536358,30.536358 0 0 0 -6.874241,6.482918a3.999856,3.999856 0 0 1 0.900043,2.647953c0,1.656601 -0.808734,2.817526 -2.60882,4.017583a16.551164,16.551164 0 0 1 -6.717712,2.5436c5.061111,-0.28697 6.835109,0.078265 6.717712,-0.039132a70.699562,70.699562 0 0 1 10.630942,-11.491853z"
    />
    <path
        fill="#a0775c"
        d="m280.318838,206.554406c1.252234,-0.117397 2.374026,-0.208706 3.365378,-0.260882a16.551164,16.551164 0 0 0 6.717712,-2.5436c1.800086,-1.200057 2.60882,-2.360982 2.60882,-4.017583a3.999856,3.999856 0 0 0 -0.900043,-2.647953a5.710029,5.710029 0 0 0 -4.904582,-1.513116a22.04744,22.04744 0 0 0 -6.482918,1.552248a12.895711,12.895711 0 0 1 -4.995891,0.326103a31.2479,31.2479 0 0 0 -15.326819,-2.5436c-6.495962,0.586985 -12.704954,3.900186 -16.957331,3.521907l-7.826461,0l0,18.261741l14.348511,0c2.60882,0 11.739691,5.21764 16.957331,5.21764s24.849012,-5.817669 26.088202,-6.52205c1.30441,-0.73047 9.06565,-11.791867 12.717998,-16.526876c1.865306,-2.413159 0.913087,-4.369774 -0.808734,-4.969802a4.009183,4.009183 0 0 0 -3.887142,0.873955a70.699562,70.699562 0 0 0 -10.630942,11.491853c0.117397,0.117397 -1.656601,-0.247838 -6.717712,0.039132a14.421845,14.421845 0 0 1 -1.760954,0.182617q-0.782646,0.039132 -1.604424,0.078265z"
    />
    <path
        fill="#916953"
        d="m267.167123,216.445357c5.21764,0 24.604422,-4.268956 25.843625,-4.973298c1.30441,-0.73047 6.032897,-8.152328 10.027653,-12.799289c0.531456,-0.618225 3.702568,-1.10314 2.282718,0.733731c-3.652348,4.735009 -11.00596,15.248319 -12.31037,15.978789c-1.23919,0.704381 -20.870562,6.52205 -26.088202,6.52205s-14.348511,-5.21764 -16.957331,-5.21764l-14.348511,0l0,-3.91323l14.348511,0c2.60882,0 11.984268,3.668888 17.201908,3.668888z"
    />
    <path
        fill="#ad8064"
        d="m243.443164,198.427957c4.252377,0.378279 10.461369,-2.934923 16.957331,-3.521907a31.246687,31.246687 0 0 1 15.326819,2.5436a12.897394,12.897394 0 0 0 4.995891,-0.326103a22.044635,22.044635 0 0 1 6.482918,-1.552248a5.710186,5.710186 0 0 1 4.904582,1.513116a3.999674,3.999674 0 0 1 0.900043,2.647953a3.84441,3.84441 0 0 1 -0.47371,1.902156a3.504806,3.504806 0 0 0 -0.426333,-0.636917a5.710186,5.710186 0 0 0 -4.904582,-1.513116a22.044635,22.044635 0 0 0 -6.482918,1.552248a12.897394,12.897394 0 0 1 -4.995891,0.326103a31.246687,31.246687 0 0 0 -15.326819,-2.5436c-6.495962,0.586985 -12.704954,3.900186 -16.957331,3.521907l-7.826461,0l0,-3.91323l7.826461,0.000039z"
    />
    <path
        fill="#ad8064"
        d="m304.920025,197.801788a4.009157,4.009157 0 0 0 -3.887142,0.873955a46.965977,46.965977 0 0 0 -8.402566,9.372474c-3.750179,-0.217406 -1.141359,-3.91323 0.333929,-5.033966a67.945079,67.945079 0 0 1 8.068729,-8.251698a4.009157,4.009157 0 0 1 3.887142,-0.873955c1.623586,0.565827 2.531599,2.343777 1.069473,4.567431a2.914248,2.914248 0 0 0 -1.069564,-0.65424z"
    />
    <path
        fill="#505070"
        d="m279.96653,207.885165a1.30441,1.30441 0 0 1 0,-2.60882a1.173017,1.173017 0 0 1 0.156686,-0.01337l0.195531,-0.012744a1.30428,1.30428 0 0 1 0.031841,2.608181c-0.055411,0.004461 -0.195531,0.01337 -0.227385,0.01337a1.173004,1.173004 0 0 1 -0.156673,0.013383z"
    />
    <path
        fill="#333"
        d="m266.922429,223.211984c-3.311976,0 -7.710538,-1.790381 -11.591927,-3.369943a26.173458,26.173458 0 0 0 -5.365404,-1.847697l-13.044101,0a1.30441,1.30441 0 1 1 0,-2.60882l13.044101,0c1.273835,0 3.14702,0.736913 6.348812,2.040097c3.47821,1.41582 7.807351,3.177543 10.608519,3.177543c4.777532,0 23.907385,-5.57814 25.460194,-6.360304c0.814617,-0.606342 5.043123,-6.361608 7.841109,-10.170329c1.690385,-2.301188 3.2865,-4.474361 4.471805,-6.011244a2.508785,2.508785 0 0 0 0.698068,-2.089091a1.371405,1.371405 0 0 0 -0.903147,-0.851558a2.712964,2.712964 0 0 0 -2.605637,0.629274a69.85437,69.85437 0 0 0 -10.337828,11.151819a1.550944,1.550944 0 0 1 -1.668093,0.660488a48.559614,48.559614 0 0 0 -6.120788,0.033758c-0.980212,0.051589 -2.08463,0.141398 -3.317115,0.257321a1.30441,1.30441 0 0 1 -0.244577,-2.597354c1.27193,-0.119745 2.412011,-0.212097 3.418976,-0.264952a52.017409,52.017409 0 0 1 6.143772,-0.049046a72.00302,72.00302 0 0 1 10.423815,-11.169011a5.328594,5.328594 0 0 1 5.158407,-1.118427a3.933501,3.933501 0 0 1 2.552731,2.575062a4.959237,4.959237 0 0 1 -1.133715,4.426581c-1.165556,1.511407 -2.753401,3.672475 -4.434225,5.960919c-5.662849,7.707994 -7.710538,10.364582 -8.678019,10.906603c-1.559174,0.886621 -21.497905,6.688311 -26.725732,6.688311z"
    />
    <path
        fill="#333"
        d="m280.317468,207.859077a1.304514,1.304514 0 0 1 -0.061138,-2.607516l1.601816,-0.077704a13.082894,13.082894 0 0 0 1.606942,-0.166234a15.356207,15.356207 0 0 0 6.214418,-2.343855c1.687228,-1.125497 2.026714,-1.956041 2.026714,-2.931166a2.767397,2.767397 0 0 0 -0.587245,-1.801208a4.591184,4.591184 0 0 0 -3.829161,-1.058555a20.940921,20.940921 0 0 0 -6.1055,1.471283a13.980015,13.980015 0 0 1 -5.57244,0.405085a1.295044,1.295044 0 0 1 -0.333107,-0.074521c-0.24712,-0.090448 -0.522273,-0.196809 -0.824805,-0.313358a29.093811,29.093811 0 0 0 -13.937661,-2.155981a44.993905,44.993905 0 0 0 -8.620703,1.943245c-3.129189,0.926131 -6.085073,1.801208 -8.567835,1.578923l-7.711177,0.005087a1.30441,1.30441 0 0 1 0,-2.60882l7.826461,0c2.105657,0.185344 4.828483,-0.623508 7.713094,-1.47701a47.655462,47.655462 0 0 1 9.127049,-2.040097a31.530618,31.530618 0 0 1 15.110287,2.320937q0.334386,0.12898 0.620364,0.237572a11.635234,11.635234 0 0 0 4.251438,-0.263047a23.48113,23.48113 0 0 1 6.871685,-1.633708c3.327263,-0.214002 5.07306,0.947093 5.956471,1.95792a5.293661,5.293661 0 0 1 1.221606,3.506254a6.030288,6.030288 0 0 1 -3.189687,5.102357a17.88028,17.88028 0 0 1 -7.250055,2.748888a15.579744,15.579744 0 0 1 -1.891656,0.195531l-1.602494,0.078343l-0.063681,0.001357z"
    />
    <path
        fill="#333"
        d="m269.308325,211.576111a1.30441,1.30441 0 0 1 -0.254764,-2.583345a11.252807,11.252807 0 0 0 4.999178,-2.687163a1.316267,1.316267 0 0 1 0.651566,-0.349673a36.966187,36.966187 0 0 1 5.174334,-0.676402a1.304188,1.304188 0 1 1 0.175795,2.602455a35.200172,35.200172 0 0 0 -4.467983,0.557309a13.683262,13.683262 0 0 1 -6.020792,3.111344a1.319828,1.319828 0 0 1 -0.257334,0.025475z"
    />
    <path
        fill="#333"
        d="m292.109388,198.388708a1.304488,1.304488 0 0 1 -1.088491,-2.020949a31.55308,31.55308 0 0 1 7.200344,-6.823956c0.205719,-0.146485 0.420372,-0.289801 0.620991,-0.418455c2.421572,-1.475744 4.981986,-1.536882 6.548804,-0.171334a4.092848,4.092848 0 0 1 0.777037,4.880711a1.30441,1.30441 0 1 1 -2.392288,-1.040724c0.169417,-0.389797 0.499341,-1.352178 -0.099357,-1.873811c-0.547748,-0.477688 -1.862345,-0.55157 -3.452095,0.417176c-0.139481,0.089809 -0.315915,0.207636 -0.48151,0.326103a29.547837,29.547837 0 0 0 -6.542386,6.137302a1.302714,1.302714 0 0 1 -1.091048,0.587937z"
    />
    <path
        fill="#333"
        d="m287.140785,196.627623a1.30471,1.30471 0 0 1 -0.861119,-2.284622c0.024784,-0.03758 0.079569,-0.115923 0.148403,-0.211458a23.301147,23.301147 0 0 1 6.529055,-6.257086a5.84587,5.84587 0 0 1 5.126566,-1.089769a4.371261,4.371261 0 0 1 2.62283,2.900525a1.304149,1.304149 0 1 1 -2.47761,0.815256a1.882068,1.882068 0 0 0 -1.015248,-1.256003a3.644431,3.644431 0 0 0 -2.84321,0.822261a20.803737,20.803737 0 0 0 -5.821439,5.583867a6.247094,6.247094 0 0 1 -0.403167,0.524816a1.462139,1.462139 0 0 1 -1.005061,0.452213z"
    />
    <path
        fill="#434242"
        d="m249.88695,216.689673l0,6.52205a2.61649,2.61649 0 0 1 -2.60882,2.60882l-8.256916,0a2.618864,2.618864 0 0 1 -2.582732,-2.191409a151.550409,151.550409 0 0 1 -2.113144,-27.836112a2.611103,2.611103 0 0 1 2.60882,-2.582732l10.343972,0a2.61649,2.61649 0 0 1 2.60882,2.60882l0,20.870562z"
    />
    <path
        fill="#333"
        opacity="0.3"
        d="m236.438495,219.715852a2.578584,2.578584 0 0 0 2.582732,2.191474l8.256916,0a2.616529,2.616529 0 0 0 2.60882,-2.60882l0,3.91323a2.616529,2.616529 0 0 1 -2.60882,2.60882l-8.256916,0a2.640126,2.640126 0 0 1 -2.582732,-2.191474c-0.821791,-4.248803 -0.251112,-5.716264 0,-3.91323z"
    />
    <path
        fill="#4c4c4c"
        d="m247.278143,197.123547l-10.343972,0a2.611038,2.611038 0 0 0 -2.60882,2.582732l-0.000639,0.096892c-0.014088,-1.458631 -0.00964,-2.799264 0.000639,-4.010122a2.611038,2.611038 0 0 1 2.60882,-2.582732l10.343972,0a2.616477,2.616477 0 0 1 2.60882,2.60882l0,3.91323a2.616477,2.616477 0 0 0 -2.60882,-2.60882z"
    />
    <path
        fill="#333"
        d="m247.277934,227.125214l-8.25702,0a3.931388,3.931388 0 0 1 -3.867367,-3.270574a152.41085,152.41085 0 0 1 -2.13241,-28.07221a3.9239,3.9239 0 0 1 3.91323,-3.876289l10.343568,0a3.917509,3.917509 0 0 1 3.91323,3.91323l0,27.392612a3.917509,3.917509 0 0 1 -3.91323,3.91323zm-10.343568,-32.610252a1.307228,1.307228 0 0 0 -1.30441,1.289762a149.918292,149.918292 0 0 0 2.094191,27.605974a1.309889,1.309889 0 0 0 1.296766,1.105696l8.25702,0a1.306106,1.306106 0 0 0 1.30441,-1.30441l0,-27.392612a1.306106,1.306106 0 0 0 -1.30441,-1.30441l-10.343568,0z"
    />
    <path
        fill="#333"
        d="m243.367887,220.603164a1.348669,1.348669 0 0 1 -0.926131,-0.378279a1.551935,1.551935 0 0 1 -0.287244,-0.43056a1.290583,1.290583 0 0 1 -0.091035,-0.495571a1.312824,1.312824 0 0 1 0.378279,-0.926131a1.338325,1.338325 0 0 1 1.173839,-0.352191a0.787564,0.787564 0 0 1 0.24776,0.077704a0.721469,0.721469 0 0 1 0.221645,0.117827a0.785868,0.785868 0 0 1 0.195531,0.156686a1.326376,1.326376 0 0 1 0.391701,0.926131a1.35343,1.35343 0 0 1 -0.391701,0.926131a1.241433,1.241433 0 0 1 -0.195531,0.156047a0.721469,0.721469 0 0 1 -0.221645,0.117827a0.805225,0.805225 0 0 1 -0.24776,0.078343a1.635509,1.635509 0 0 1 -0.247707,0.026036z"
    />
    <g transform="matrix(2.975489251546475,0,0,2.975489251546475,56.18969800092418,28.229200146750372)">
        <path
            fill="#434242"
            d="m63.972515,32.341131a6,6 0 0 0 -4.5,-4.66l-20.7,-4.9l-19.79,4.87a6.52,6.52 0 0 0 -4.5,5l-0.87,4.35a61.8,61.8 0 0 0 51.29,0l-0.93,-4.66z"
        />
        <path
            fill="#4c4c4c"
            d="m63.972515,32.341131a6,6 0 0 0 -4.5,-4.66l-20.7,-4.9l-19.79,4.87a6.52,6.52 0 0 0 -4.5,5l-0.87,4.35a61.8,61.8 0 0 0 51.29,0l-0.93,-4.66z"
        />
        <path
            fill="#434242"
            d="m59.472515,31.211131l-20.7,-4.9l-19.79,4.84a6.52,6.52 0 0 0 -4.5,5l-0.22,1.12a61.75,61.75 0 0 0 50,0l-0.29,-1.43a6,6 0 0 0 -4.5,-4.63z"
        />
        <path
            stroke="#343433"
            fill="none"
            stroke-linejoin="round"
            d="m63.972515,32.341131a6,6 0 0 0 -4.5,-4.66l-20.7,-4.9l-19.79,4.87a6.52,6.52 0 0 0 -4.5,5l-0.87,4.35a61.8,61.8 0 0 0 51.29,0l-0.93,-4.66z"
        />
        <path fill="#916953" d="m31.262515,17.571131l16,0l0,9a12.1,12.1 0 0 1 -8,2.3a12.3,12.3 0 0 1 -8,-2.3l0,-9z" />
        <line
            stroke="#343433"
            fill="none"
            stroke-linejoin="round"
            y2="35.571131"
            y1="35.571131"
            x2="42.222515"
            x1="36.222515"
        />
        <line
            stroke="#343433"
            fill="none"
            stroke-linejoin="round"
            y2="38.571131"
            y1="38.571131"
            x2="42.222515"
            x1="36.222515"
        />
        <line
            stroke="#333"
            fill="none"
            stroke-linejoin="round"
            y2="26.571131"
            y1="20.301131"
            x2="31.222515"
            x1="31.222515"
        />
        <line
            stroke="#333"
            fill="none"
            stroke-linejoin="round"
            y2="26.571131"
            y1="20.301131"
            x2="47.222515"
            x1="47.222515"
        />
        <line
            stroke="#343433"
            fill="none"
            stroke-linejoin="round"
            y2="42.441131"
            y1="28.871131"
            x2="39.232515"
            x1="39.232515"
        />
        <path
            fill="#ad8064"
            d="m39.262515,-8.218869a10.65,10.65 0 0 1 8.09,3.92a8.42,8.42 0 0 1 2.4,5.79l-0.21,4c1.76,-0.53 2.75,0.08 2,4.31c-0.28,1.6 -0.89,3.87 -2.28,4a32.21,32.21 0 0 1 -0.51,3.66c-0.37,2 -2.24,3.88 -5.13,6.06a7.64,7.64 0 0 1 -4.36,1.08a7.68,7.68 0 0 1 -4.36,-1.08c-2.89,-2.18 -4.76,-4.06 -5.13,-6.06q-0.34,-1.82 -0.51,-3.66c-1.39,-0.13 -2,-2.4 -2.28,-4c-0.75,-4.23 0.24,-4.84 2,-4.31l-0.21,-4a8.46,8.46 0 0 1 2.4,-5.79a10.68,10.68 0 0 1 8.09,-3.92z"
        />
        <path
            fill="#a0775c"
            d="m49.502515,5.461131l0.2,-4a8.49,8.49 0 0 0 -2.39,-5.79a11,11 0 0 0 -8.05,-3.89a11,11 0 0 0 -3.08,0.55c0,3.58 0.11,9.68 0.11,11.08c0,2 -2,2 -2,3a3.55,3.55 0 0 1 3,2l1.5,0a0.5,0.5 0 0 1 0.5,0.5l0,1.72a1.44,1.44 0 0 0 0.59,1.17a1,1 0 0 1 -0.62,1.81c-0.74,0 -1,-0.5 -2,-0.5a1.06,1.06 0 0 0 -0.85,0.46a0.24,0.24 0 0 0 0,0.22a0.22,0.22 0 0 0 0.19,0.12c1.64,0.07 1.36,0.61 2.68,0.63l0,4.37a0.51,0.51 0 0 0 0.5,0.5a1.5,1.5 0 0 1 0,3l-1.52,0a2,2 0 0 0 -2,1.71l0,0.09a6.69,6.69 0 0 0 2.94,0.39a6.63,6.63 0 0 0 4.39,-1.13c2.89,-2.18 4.76,-4.1 5.12,-6.06a31.63,31.63 0 0 0 0.55,-3.63c1.4,-0.11 2,-2.38 2.28,-4c0.72,-4.24 -0.28,-4.85 -2.04,-4.32z"
        />
        <path
            fill="#a0775c"
            d="m30.502515,11.991131a2,2 0 0 1 -0.58,-1.41l0,-2.17c0,-2.51 -0.42,-2.92 -1,-2.92c-1.76,-0.53 -2.75,0.08 -2,4.31c0.28,1.6 0.89,3.87 2.28,4q0.16,1.85 0.51,3.66c0.28,1.51 1.41,3 3.19,4.5l0,-5.89a4,4 0 0 0 -1.15,-2.86l-1.25,-1.22z"
        />
        <path
            fill="#916953"
            d="m49.502515,5.461131c-0.83,0.44 -0.68,0.72 -0.68,1.27l-0.15,3.85a2,2 0 0 1 -0.59,1.41l-1.24,1.22a4,4 0 0 0 -1.17,2.83l0,5.73c1.71,-1.52 2.8,-3 3.06,-4.39a31.63,31.63 0 0 0 0.53,-3.6c1.4,-0.11 2,-2.38 2.28,-4c0.72,-4.24 -0.28,-4.85 -2.04,-4.32z"
        />
        <path
            stroke="#343433"
            fill="none"
            stroke-linejoin="round"
            d="m47.502515,25.581131c0,1.82 -3.7,3.29 -8.27,3.29s-8.27,-1.47 -8.27,-3.29"
        />
        <path
            stroke="#333"
            fill="none"
            stroke-linecap="round"
            stroke-linejoin="round"
            d="m37.512515,7.851131a3,3 0 0 1 3.42,0l0,0"
        />
        <ellipse fill="#333" ry="2.66" rx="3.42" cy="8.561131" cx="34.622515" />
        <ellipse fill="#333" ry="2.66" rx="3.42" cy="8.561131" cx="43.792515" />
        <ellipse fill="#3a3a3a" ry="1.34" rx="1.72" cy="8.991131" cx="35.582515" />
        <ellipse fill="#3a3a3a" ry="1.34" rx="1.72" cy="8.991131" cx="44.522515" />
        <path
            stroke="#343433"
            fill="#444"
            stroke-linejoin="round"
            d="m29.262515,26.571131c1.78,3.25 4.56,4.57 7,6l0,-5a11,11 0 0 1 -6,-5l-1,4z"
        />
        <path
            stroke="#343433"
            fill="#444"
            stroke-linejoin="round"
            d="m49.262515,26.571131c-1.78,3.25 -4.57,4.57 -7,6l0,-5a11,11 0 0 0 6,-5l1,4z"
        />
        <path
            stroke="#674848"
            fill="none"
            stroke-linecap="round"
            stroke-miterlimit="10"
            d="m36.672515,13.741131a2.64,2.64 0 0 1 1.25,0.32l0,0a2.58,2.58 0 0 0 2.5,0l0,0a2.61,2.61 0 0 1 1.25,-0.32"
        />
        <path
            fill="#916953"
            d="m40.312515,16.141131a0.63,0.63 0 0 0 -0.45,0l-0.68,0.31l-0.68,-0.24a0.63,0.63 0 0 0 -0.45,0a6.21,6.21 0 0 0 -2.56,1.38l0,0l1,1.11a1.91,1.91 0 0 0 1.4,0.61l2.57,0a1.89,1.89 0 0 0 1.39,-0.61l1,-1.11a6.21,6.21 0 0 0 -2.54,-1.45z"
        />
        <path
            stroke="#674848"
            fill="none"
            stroke-linecap="round"
            stroke-miterlimit="10"
            d="m42.412515,17.511131c-1,0 -1.75,-0.41 -3.22,0l0,0c-1.35,-0.45 -2.25,0 -3.26,0"
        />
        <path
            stroke="#333"
            fill="none"
            stroke-linecap="round"
            stroke-linejoin="round"
            d="m39.262515,-8.218869a10.65,10.65 0 0 1 8.09,3.92a8.42,8.42 0 0 1 2.4,5.79l-0.21,4c1.76,-0.53 2.75,0.08 2,4.31c-0.28,1.6 -0.89,3.87 -2.28,4a32.21,32.21 0 0 1 -0.51,3.66c-0.37,2 -2.24,3.88 -5.13,6.06a7.64,7.64 0 0 1 -4.36,1.08a7.68,7.68 0 0 1 -4.36,-1.08c-2.89,-2.18 -4.76,-4.06 -5.13,-6.06q-0.34,-1.82 -0.51,-3.66c-1.39,-0.13 -2,-2.4 -2.28,-4c-0.75,-4.23 0.24,-4.84 2,-4.31l-0.21,-4a8.46,8.46 0 0 1 2.4,-5.79a10.68,10.68 0 0 1 8.09,-3.92z"
        />
    </g>
    <text
        x="17.166667"
        y="177.5"
        font-weight="bold"
        font-family="'Trebuchet MS', Gadget, sans-serif"
        font-size="24"
        stroke-width="0"
        stroke="#000"
        fill="#bf0000"
    >
        Template
    </text>
    <text
        x="212.166667"
        y="177.5"
        font-weight="bold"
        font-family="'Trebuchet MS', Gadget, sans-serif"
        font-size="24"
        stroke-width="0"
        stroke="#000"
        fill="#007fff"
    >
        Component
    </text>
    <g transform="rotate(-20 80.00000000000011,300.8601684570313)">
        <g transform="matrix(-1.2870228262350354,0,0,1.2870228262350354,298.0587174173946,168.9197206152953)">
            <path
                fill="#a0775c"
                d="m187.177595,88.801603a17.48624,17.48624 0 0 0 -4.96,4.84l0.01,0.22a4.37748,4.37748 0 0 1 3.76,1.16a23.41009,23.41009 0 0 1 5.27,-4.97c0.14,-0.1 0.29,-0.2 0.43,-0.29l-0.06,-0.1c-0.5,-1.52 -1.91,-2.5 -4.45,-0.86z"
            />
            <path
                fill="#a0775c"
                d="m192.827595,93.241603a3.07356,3.07356 0 0 1 2.98,-0.67l0.04,-0.44c1.1,-2.53 -1.32,-4.1 -4.16,-2.37c-0.14,0.09 -0.29,0.19 -0.43,0.29a23.41009,23.41009 0 0 0 -5.27,4.97a3.06641,3.06641 0 0 1 0.69,2.03c0,1.27 -0.62,2.16 -2,3.08a12.68862,12.68862 0 0 1 -5.15,1.95c3.88,-0.22 5.24,0.06 5.15,-0.03a54.20041,54.20041 0 0 1 8.15,-8.81z"
            />
            <path
                fill="#a0775c"
                d="m176.947595,102.281603c0.96,-0.09 1.82,-0.16 2.58,-0.2a12.68862,12.68862 0 0 0 5.15,-1.95c1.38,-0.92 2,-1.81 2,-3.08a3.06641,3.06641 0 0 0 -0.69,-2.03a4.37748,4.37748 0 0 0 -3.76,-1.16a16.90223,16.90223 0 0 0 -4.97,1.19a9.88624,9.88624 0 0 1 -3.83,0.25a23.95558,23.95558 0 0 0 -11.75,-1.95c-4.98,0.45 -9.74,2.99 -13,2.7l-6,0l0,14l11,0c2,0 9,4 13,4s19.05,-4.46 20,-5c1,-0.56 6.95,-9.04 9.75,-12.67c1.43,-1.85 0.7,-3.35 -0.62,-3.81a3.07356,3.07356 0 0 0 -2.98,0.67a54.20041,54.20041 0 0 0 -8.15,8.81c0.09,0.09 -1.27,-0.19 -5.15,0.03a11.05622,11.05622 0 0 1 -1.35,0.14q-0.6,0.03 -1.23,0.06z"
            />
            <path
                fill="#916953"
                d="m166.865095,109.864303c4,0 18.86249,-3.27271 19.8125,-3.81268c1,-0.56 4.625,-6.24982 7.6875,-9.81232c0.40743,-0.47395 2.8385,-0.8457 1.75,0.5625c-2.8,3.63 -8.4375,11.68982 -9.4375,12.24982c-0.95,0.54 -16,5 -20,5s-11,-4 -13,-4l-11,0l0,-3l11,0c2,0 9.1875,2.81268 13.1875,2.81268z"
            />
            <path
                fill="#ad8064"
                d="m148.677595,96.051623c3.26,0.29 8.02,-2.25 13,-2.7a23.95465,23.95465 0 0 1 11.75,1.95a9.88753,9.88753 0 0 0 3.83,-0.25a16.90008,16.90008 0 0 1 4.97,-1.19a4.3776,4.3776 0 0 1 3.76,1.16a3.06627,3.06627 0 0 1 0.69,2.03a2.94724,2.94724 0 0 1 -0.36316,1.45825a2.68689,2.68689 0 0 0 -0.32684,-0.48828a4.3776,4.3776 0 0 0 -3.76,-1.16a16.90008,16.90008 0 0 0 -4.97,1.19a9.88753,9.88753 0 0 1 -3.83,0.25a23.95465,23.95465 0 0 0 -11.75,-1.95c-4.98,0.45 -9.74,2.99 -13,2.7l-6,0l0,-3l6,0.00003z"
            />
            <path
                fill="#ad8064"
                d="m195.807605,95.571583a3.07354,3.07354 0 0 0 -2.98,0.67a36.00553,36.00553 0 0 0 -6.44166,7.18522c-2.875,-0.16667 -0.875,-3 0.256,-3.85919a52.08874,52.08874 0 0 1 6.18573,-6.326a3.07354,3.07354 0 0 1 2.98,-0.67c1.24469,0.43378 1.9408,1.79681 0.81989,3.50153a2.23415,2.23415 0 0 0 -0.81996,-0.50156z"
            />
            <path
                fill="#505070"
                d="m176.677505,103.301803a1,1 0 0 1 0,-2a0.89927,0.89927 0 0 1 0.12012,-0.01025l0.1499,-0.00977a0.9999,0.9999 0 0 1 0.02441,1.99951c-0.04248,0.00342 -0.1499,0.01025 -0.17432,0.01025a0.89926,0.89926 0 0 1 -0.12011,0.01026z"
            />
            <path
                fill="#333"
                d="m166.677505,115.051803c-2.53906,0 -5.91113,-1.37256 -8.88672,-2.5835a20.06536,20.06536 0 0 0 -4.11328,-1.4165l-10,0a1,1 0 1 1 0,-2l10,0c0.97656,0 2.4126,0.56494 4.86719,1.564c2.6665,1.08541 5.98535,2.436 8.13281,2.436c3.6626,0 18.32812,-4.27637 19.51855,-4.876c0.62451,-0.46484 3.86621,-4.877 6.01123,-7.79688c1.2959,-1.76416 2.51953,-3.43018 3.42822,-4.6084a1.92331,1.92331 0 0 0 0.53516,-1.60156a1.05136,1.05136 0 0 0 -0.69238,-0.65283a2.07984,2.07984 0 0 0 -1.99756,0.48242a53.55246,53.55246 0 0 0 -7.92529,8.54932a1.189,1.189 0 0 1 -1.27881,0.50635a37.22726,37.22726 0 0 0 -4.69238,0.02588c-0.75146,0.03955 -1.59814,0.1084 -2.543,0.19727a1,1 0 0 1 -0.1875,-1.99121c0.9751,-0.0918 1.84912,-0.1626 2.62109,-0.20312a39.87811,39.87811 0 0 1 4.71,-0.0376a55.19968,55.19968 0 0 1 7.99121,-8.5625a4.08506,4.08506 0 0 1 3.95459,-0.85742a3.01554,3.01554 0 0 1 1.957,1.97412a3.8019,3.8019 0 0 1 -0.86914,3.39355c-0.89355,1.15869 -2.11084,2.81543 -3.39941,4.56982c-4.34131,5.90918 -5.91113,7.9458 -6.65283,8.36133c-1.19531,0.67971 -16.48094,5.12746 -20.48875,5.12746z"
            />
            <path
                fill="#333"
                d="m176.946545,103.281803a1.00008,1.00008 0 0 1 -0.04687,-1.999l1.228,-0.05957a10.02974,10.02974 0 0 0 1.23193,-0.12744a11.77253,11.77253 0 0 0 4.76416,-1.79687c1.29348,-0.86284 1.55374,-1.49956 1.55374,-2.24712a2.12157,2.12157 0 0 0 -0.4502,-1.38086a3.51974,3.51974 0 0 0 -2.93555,-0.81152a16.05394,16.05394 0 0 0 -4.68066,1.12793a10.7175,10.7175 0 0 1 -4.272,0.31055a0.99282,0.99282 0 0 1 -0.25537,-0.05713c-0.18945,-0.06934 -0.40039,-0.15088 -0.63232,-0.24023a22.30419,22.30419 0 0 0 -10.68503,-1.65284a34.49368,34.49368 0 0 0 -6.60889,1.48975c-2.39893,0.71 -4.665,1.38086 -6.56836,1.21045l-5.91162,0.0039a1,1 0 0 1 0,-2l6,0c1.61426,0.14209 3.70166,-0.478 5.91309,-1.13232a36.53411,36.53411 0 0 1 6.99707,-1.564a24.17232,24.17232 0 0 1 11.584,1.7793q0.25635,0.09888 0.47559,0.18213a8.91992,8.91992 0 0 0 3.25928,-0.20166a18.00134,18.00134 0 0 1 5.26804,-1.25245c2.55078,-0.16406 3.88916,0.72607 4.56641,1.501a4.05828,4.05828 0 0 1 0.93652,2.688a4.623,4.623 0 0 1 -2.44531,3.91162a13.70756,13.70756 0 0 1 -5.55811,2.10738a11.9439,11.9439 0 0 1 -1.4502,0.1499l-1.22852,0.06006l-0.04882,0.00104z"
            />
            <path
                fill="#333"
                d="m168.506605,106.131393a1,1 0 0 1 -0.19531,-1.98047a8.62674,8.62674 0 0 0 3.83252,-2.06006a1.00909,1.00909 0 0 1 0.49951,-0.26807a28.33939,28.33939 0 0 1 3.9668,-0.51855a0.99983,0.99983 0 1 1 0.13477,1.99512a26.98551,26.98551 0 0 0 -3.42529,0.42725a10.49,10.49 0 0 1 -4.61572,2.38525a1.01182,1.01182 0 0 1 -0.19728,0.01953z"
            />
            <path
                fill="#333"
                d="m185.986585,96.021533a1.00006,1.00006 0 0 1 -0.83447,-1.54932a24.18954,24.18954 0 0 1 5.52,-5.23145c0.15771,-0.1123 0.32227,-0.22217 0.47607,-0.3208c1.85645,-1.13135 3.81934,-1.17822 5.02051,-0.13135a3.1377,3.1377 0 0 1 0.5957,3.7417a1,1 0 1 1 -1.834,-0.79785c0.12988,-0.29883 0.38281,-1.03662 -0.07617,-1.43652c-0.41992,-0.36621 -1.42773,-0.42285 -2.64648,0.31982c-0.10693,0.06885 -0.24219,0.15918 -0.36914,0.25a22.65226,22.65226 0 0 0 -5.01559,4.70504a0.9987,0.9987 0 0 1 -0.83643,0.45073z"
            />
            <path
                fill="#333"
                d="m182.177505,94.671433a1.00023,1.00023 0 0 1 -0.66016,-1.75146c0.019,-0.02881 0.061,-0.08887 0.11377,-0.16211a17.86336,17.86336 0 0 1 5.00537,-4.79687a4.48162,4.48162 0 0 1 3.93018,-0.83545a3.35114,3.35114 0 0 1 2.01074,2.22363a0.9998,0.9998 0 1 1 -1.89941,0.625a1.44285,1.44285 0 0 0 -0.77832,-0.96289a2.79393,2.79393 0 0 0 -2.17969,0.63037a15.94877,15.94877 0 0 0 -4.46289,4.28076a4.78921,4.78921 0 0 1 -0.30908,0.40234a1.12092,1.12092 0 0 1 -0.77051,0.34668z"
            />
            <path
                fill="#434242"
                d="m153.617595,110.051603l0,5a2.00588,2.00588 0 0 1 -2,2l-6.33,0a2.0077,2.0077 0 0 1 -1.98,-1.68a116.1831,116.1831 0 0 1 -1.62,-21.34a2.00175,2.00175 0 0 1 2,-1.98l7.93,0a2.00588,2.00588 0 0 1 2,2l0,16z"
            />
            <path
                fill="#333"
                opacity="0.3"
                d="m143.307605,112.371563a1.97682,1.97682 0 0 0 1.98,1.68005l6.33,0a2.00591,2.00591 0 0 0 2,-2l0,3a2.00591,2.00591 0 0 1 -2,2l-6.33,0a2.024,2.024 0 0 1 -1.98,-1.68005c-0.63001,-3.25726 -0.19251,-4.38226 0,-3z"
            />
            <path
                fill="#4c4c4c"
                d="m151.617605,95.051623l-7.93,0a2.0017,2.0017 0 0 0 -2,1.98l-0.00049,0.07428c-0.0108,-1.11823 -0.00739,-2.146 0.00049,-3.07428a2.0017,2.0017 0 0 1 2,-1.98l7.93,0a2.00587,2.00587 0 0 1 2,2l0,3a2.00587,2.00587 0 0 0 -2,-2z"
            />
            <path
                fill="#333"
                d="m151.617445,118.051803l-6.33008,0a3.01392,3.01392 0 0 1 -2.96484,-2.50732a116.84274,116.84274 0 0 1 -1.63477,-21.521a3.00818,3.00818 0 0 1 3,-2.97168l7.92969,0a3.00328,3.00328 0 0 1 3,3l0,21a3.00328,3.00328 0 0 1 -3,3zm-7.92969,-25a1.00216,1.00216 0 0 0 -1,0.98877a114.93187,114.93187 0 0 0 1.60547,21.16357a1.0042,1.0042 0 0 0 0.99414,0.84766l6.33008,0a1.0013,1.0013 0 0 0 1,-1l0,-21a1.0013,1.0013 0 0 0 -1,-1l-7.92969,0z"
            />
            <path
                fill="#333"
                d="m148.619885,113.051803a1.03393,1.03393 0 0 1 -0.71,-0.29a1.18976,1.18976 0 0 1 -0.22021,-0.33008a0.9894,0.9894 0 0 1 -0.06979,-0.37992a1.00645,1.00645 0 0 1 0.29,-0.71a1.026,1.026 0 0 1 0.8999,-0.27a0.60377,0.60377 0 0 1 0.18994,0.05957a0.5531,0.5531 0 0 1 0.16992,0.09033a0.60247,0.60247 0 0 1 0.1499,0.12012a1.01684,1.01684 0 0 1 0.30029,0.71a1.03758,1.03758 0 0 1 -0.30029,0.71a0.95172,0.95172 0 0 1 -0.1499,0.11963a0.5531,0.5531 0 0 1 -0.16992,0.09033a0.61731,0.61731 0 0 1 -0.18994,0.06006a1.25383,1.25383 0 0 1 -0.1899,0.01996z"
            />
        </g>
    </g>
    <g transform="rotate(20 270.51123046875017,300.8601684570312)">
        <path
            fill="#a0775c"
            d="m293.662953,282.970958a22.809228,22.809228 0 0 0 -6.469874,6.313345l0.013044,0.28697a5.710029,5.710029 0 0 1 4.904582,1.513116a30.536358,30.536358 0 0 1 6.874241,-6.482918c0.182618,-0.130441 0.378279,-0.260882 0.560897,-0.378279l-0.078265,-0.130441c-0.652205,-1.982704 -2.491423,-3.261026 -5.804625,-1.121793z"
        />
        <path
            fill="#a0775c"
            d="m301.03287,288.762539a4.009183,4.009183 0 0 1 3.887142,-0.873955l0.052177,-0.57394c1.434851,-3.300158 -1.721822,-5.348082 -5.426346,-3.091452c-0.182618,0.117397 -0.378279,0.247838 -0.560897,0.378279a30.536358,30.536358 0 0 0 -6.874241,6.482918a3.999856,3.999856 0 0 1 0.900043,2.647952c0,1.656601 -0.808734,2.817526 -2.60882,4.017583a16.551164,16.551164 0 0 1 -6.717712,2.5436c5.061111,-0.28697 6.835109,0.078265 6.717712,-0.039132a70.699562,70.699562 0 0 1 10.630942,-11.491853z"
        />
        <path
            fill="#a0775c"
            d="m280.318838,300.554406c1.252233,-0.117397 2.374026,-0.208706 3.365378,-0.260882a16.551164,16.551164 0 0 0 6.717712,-2.5436c1.800086,-1.200057 2.60882,-2.360982 2.60882,-4.017583a3.999856,3.999856 0 0 0 -0.900043,-2.647952a5.710029,5.710029 0 0 0 -4.904582,-1.513116a22.04744,22.04744 0 0 0 -6.482918,1.552248a12.895711,12.895711 0 0 1 -4.995891,0.326103a31.2479,31.2479 0 0 0 -15.326818,-2.5436c-6.495963,0.586984 -12.704955,3.900186 -16.957332,3.521907l-7.82646,0l0,18.261742l14.348511,0c2.60882,0 11.739691,5.21764 16.957331,5.21764s24.849012,-5.817669 26.088202,-6.522051c1.30441,-0.730469 9.06565,-11.791867 12.717998,-16.526876c1.865307,-2.413158 0.913088,-4.369773 -0.808734,-4.969802a4.009183,4.009183 0 0 0 -3.887142,0.873955a70.699562,70.699562 0 0 0 -10.630942,11.491853c0.117397,0.117397 -1.656601,-0.247838 -6.717712,0.039132a14.421845,14.421845 0 0 1 -1.760954,0.182617q-0.782646,0.039133 -1.604424,0.078265z"
        />
        <path
            fill="#916953"
            d="m267.167123,310.445357c5.21764,0 24.604422,-4.268956 25.843625,-4.973299c1.30441,-0.730469 6.032897,-8.152328 10.027653,-12.799289c0.531455,-0.618225 3.702568,-1.10314 2.282717,0.733731c-3.652348,4.735008 -11.00596,15.248319 -12.31037,15.978789c-1.23919,0.704381 -20.870562,6.52205 -26.088202,6.52205s-14.348511,-5.21764 -16.957331,-5.21764l-14.348511,0l0,-3.913231l14.348511,0c2.60882,0 11.984267,3.668889 17.201908,3.668889z"
        />
        <path
            fill="#ad8064"
            d="m243.443164,292.427957c4.252377,0.378279 10.461369,-2.934923 16.957332,-3.521907a31.246687,31.246687 0 0 1 15.326818,2.5436a12.897394,12.897394 0 0 0 4.995891,-0.326103a22.044635,22.044635 0 0 1 6.482918,-1.552248a5.710186,5.710186 0 0 1 4.904582,1.513116a3.999674,3.999674 0 0 1 0.900043,2.647952a3.84441,3.84441 0 0 1 -0.47371,1.902156a3.504806,3.504806 0 0 0 -0.426333,-0.636917a5.710186,5.710186 0 0 0 -4.904582,-1.513116a22.044635,22.044635 0 0 0 -6.482918,1.552248a12.897394,12.897394 0 0 1 -4.995891,0.326103a31.246687,31.246687 0 0 0 -15.326818,-2.5436c-6.495963,0.586985 -12.704955,3.900186 -16.957332,3.521907l-7.82646,0l0,-3.91323l7.82646,0.000039z"
        />
        <path
            fill="#ad8064"
            d="m304.920025,291.801788a4.009157,4.009157 0 0 0 -3.887142,0.873955a46.965977,46.965977 0 0 0 -8.402566,9.372473c-3.750179,-0.217406 -1.141359,-3.91323 0.333929,-5.033966a67.945079,67.945079 0 0 1 8.068728,-8.251698a4.009157,4.009157 0 0 1 3.887143,-0.873955c1.623586,0.565827 2.531599,2.343777 1.069472,4.567431a2.914248,2.914248 0 0 0 -1.069564,-0.65424z"
        />
        <path
            fill="#505070"
            d="m279.96653,301.885165a1.30441,1.30441 0 0 1 0,-2.60882a1.173017,1.173017 0 0 1 0.156685,-0.01337l0.195531,-0.012744a1.30428,1.30428 0 0 1 0.031841,2.608181c-0.055411,0.004461 -0.195531,0.01337 -0.227385,0.01337a1.173004,1.173004 0 0 1 -0.156672,0.013383z"
        />
        <path
            fill="#333"
            d="m266.922429,317.211984c-3.311976,0 -7.710538,-1.790381 -11.591928,-3.369944a26.173458,26.173458 0 0 0 -5.365404,-1.847696l-13.044101,0a1.30441,1.30441 0 1 1 0,-2.608821l13.044101,0c1.273835,0 3.14702,0.736914 6.348812,2.040098c3.47821,1.415819 7.807351,3.177543 10.60852,3.177543c4.777532,0 23.907384,-5.578141 25.460193,-6.360304c0.814617,-0.606342 5.043124,-6.361608 7.841109,-10.170329c1.690386,-2.301188 3.286501,-4.474361 4.471805,-6.011243a2.508785,2.508785 0 0 0 0.698068,-2.089092a1.371405,1.371405 0 0 0 -0.903147,-0.851558a2.712964,2.712964 0 0 0 -2.605638,0.629274a69.85437,69.85437 0 0 0 -10.337828,11.151819a1.550944,1.550944 0 0 1 -1.668093,0.660488a48.559614,48.559614 0 0 0 -6.120787,0.033759c-0.980212,0.051589 -2.08463,0.141398 -3.317115,0.25732a1.30441,1.30441 0 0 1 -0.244577,-2.597354c1.27193,-0.119745 2.412011,-0.212097 3.418976,-0.264952a52.017409,52.017409 0 0 1 6.143772,-0.049046a72.00302,72.00302 0 0 1 10.423815,-11.169011a5.328594,5.328594 0 0 1 5.158407,-1.118427a3.933501,3.933501 0 0 1 2.55273,2.575062a4.959237,4.959237 0 0 1 -1.133715,4.426581c-1.165555,1.511407 -2.753401,3.672475 -4.434224,5.960919c-5.662849,7.707994 -7.710538,10.364582 -8.678019,10.906603c-1.559174,0.886621 -21.497905,6.688311 -26.725732,6.688311z"
        />
        <path
            fill="#333"
            d="m280.317468,301.859077a1.304514,1.304514 0 0 1 -0.061138,-2.607516l1.601816,-0.077703a13.082894,13.082894 0 0 0 1.606942,-0.166234a15.356207,15.356207 0 0 0 6.214418,-2.343856c1.687229,-1.125497 2.026714,-1.956041 2.026714,-2.931166a2.767397,2.767397 0 0 0 -0.587245,-1.801208a4.591184,4.591184 0 0 0 -3.829161,-1.058555a20.940921,20.940921 0 0 0 -6.1055,1.471284a13.980015,13.980015 0 0 1 -5.57244,0.405084a1.295044,1.295044 0 0 1 -0.333107,-0.074521c-0.247121,-0.090447 -0.522273,-0.196809 -0.824805,-0.313358a29.093811,29.093811 0 0 0 -13.937661,-2.155981a44.993905,44.993905 0 0 0 -8.620703,1.943245c-3.129188,0.926131 -6.085073,1.801207 -8.567835,1.578923l-7.711177,0.005087a1.30441,1.30441 0 0 1 0,-2.60882l7.826461,0c2.105657,0.185344 4.828483,-0.623508 7.713094,-1.47701a47.655462,47.655462 0 0 1 9.127049,-2.040097a31.530618,31.530618 0 0 1 15.110286,2.320937q0.334386,0.12898 0.620365,0.237572a11.635234,11.635234 0 0 0 4.251438,-0.263047a23.48113,23.48113 0 0 1 6.871684,-1.633709c3.327263,-0.214001 5.07306,0.947093 5.956472,1.95792a5.293661,5.293661 0 0 1 1.221606,3.506254a6.030288,6.030288 0 0 1 -3.189687,5.102357a17.88028,17.88028 0 0 1 -7.250055,2.748887a15.579744,15.579744 0 0 1 -1.891656,0.195532l-1.602494,0.078342l-0.063681,0.001357z"
        />
        <path
            fill="#333"
            d="m269.308325,305.576111a1.30441,1.30441 0 0 1 -0.254764,-2.583345a11.252807,11.252807 0 0 0 4.999178,-2.687163a1.316267,1.316267 0 0 1 0.651565,-0.349673a36.966187,36.966187 0 0 1 5.174334,-0.676402a1.304188,1.304188 0 1 1 0.175796,2.602454a35.200172,35.200172 0 0 0 -4.467983,0.55731a13.683262,13.683262 0 0 1 -6.020792,3.111344a1.319828,1.319828 0 0 1 -0.257334,0.025475z"
        />
        <path
            fill="#333"
            d="m292.109388,292.388708a1.304488,1.304488 0 0 1 -1.088492,-2.020949a31.55308,31.55308 0 0 1 7.200344,-6.823956c0.205719,-0.146486 0.420372,-0.289801 0.620991,-0.418455c2.421572,-1.475744 4.981985,-1.536882 6.548804,-0.171334a4.092848,4.092848 0 0 1 0.777037,4.880711a1.30441,1.30441 0 1 1 -2.392288,-1.040724c0.169416,-0.389797 0.499341,-1.352177 -0.099357,-1.873811c-0.547748,-0.477688 -1.862346,-0.55157 -3.452096,0.417177c-0.13948,0.089808 -0.315915,0.207636 -0.481509,0.326102a29.547837,29.547837 0 0 0 -6.542387,6.137302a1.302714,1.302714 0 0 1 -1.091047,0.587937z"
        />
        <path
            fill="#333"
            d="m287.140785,290.627623a1.30471,1.30471 0 0 1 -0.861119,-2.284622c0.024784,-0.03758 0.079569,-0.115923 0.148403,-0.211458a23.301147,23.301147 0 0 1 6.529055,-6.257085a5.84587,5.84587 0 0 1 5.126566,-1.08977a4.371261,4.371261 0 0 1 2.62283,2.900526a1.304149,1.304149 0 1 1 -2.47761,0.815256a1.882068,1.882068 0 0 0 -1.015248,-1.256003a3.644431,3.644431 0 0 0 -2.84321,0.822261a20.803737,20.803737 0 0 0 -5.821439,5.583866a6.247094,6.247094 0 0 1 -0.403167,0.524817a1.462139,1.462139 0 0 1 -1.005061,0.452212z"
        />
        <path
            fill="#434242"
            d="m249.88695,310.689673l0,6.52205a2.61649,2.61649 0 0 1 -2.60882,2.60882l-8.256916,0a2.618864,2.618864 0 0 1 -2.582732,-2.191409a151.550409,151.550409 0 0 1 -2.113144,-27.836111a2.611103,2.611103 0 0 1 2.60882,-2.582732l10.343972,0a2.61649,2.61649 0 0 1 2.60882,2.60882l0,20.870562z"
        />
        <path
            fill="#333"
            opacity="0.3"
            d="m236.438495,313.715852a2.578584,2.578584 0 0 0 2.582732,2.191474l8.256916,0a2.616529,2.616529 0 0 0 2.60882,-2.60882l0,3.91323a2.616529,2.616529 0 0 1 -2.60882,2.60882l-8.256916,0a2.640126,2.640126 0 0 1 -2.582732,-2.191474c-0.821791,-4.248803 -0.251112,-5.716264 0,-3.91323z"
        />
        <path
            fill="#4c4c4c"
            d="m247.278143,291.123547l-10.343972,0a2.611038,2.611038 0 0 0 -2.60882,2.582732l-0.000639,0.096892c-0.014088,-1.458631 -0.00964,-2.799264 0.000639,-4.010122a2.611038,2.611038 0 0 1 2.60882,-2.582732l10.343972,0a2.616477,2.616477 0 0 1 2.60882,2.60882l0,3.91323a2.616477,2.616477 0 0 0 -2.60882,-2.60882z"
        />
        <path
            fill="#333"
            d="m247.277934,321.125214l-8.25702,0a3.931388,3.931388 0 0 1 -3.867367,-3.270573a152.41085,152.41085 0 0 1 -2.132411,-28.07221a3.9239,3.9239 0 0 1 3.913231,-3.876289l10.343567,0a3.917509,3.917509 0 0 1 3.913231,3.91323l0,27.392612a3.917509,3.917509 0 0 1 -3.913231,3.91323zm-10.343567,-32.610252a1.307228,1.307228 0 0 0 -1.304411,1.289761a149.918292,149.918292 0 0 0 2.094192,27.605975a1.309889,1.309889 0 0 0 1.296766,1.105696l8.25702,0a1.306106,1.306106 0 0 0 1.30441,-1.30441l0,-27.392612a1.306106,1.306106 0 0 0 -1.30441,-1.30441l-10.343567,0z"
        />
        <path
            fill="#333"
            d="m243.367887,314.603164a1.348669,1.348669 0 0 1 -0.926131,-0.378279a1.551935,1.551935 0 0 1 -0.287245,-0.43056a1.290583,1.290583 0 0 1 -0.091034,-0.495571a1.312824,1.312824 0 0 1 0.378279,-0.926132a1.338325,1.338325 0 0 1 1.173838,-0.35219a0.787564,0.787564 0 0 1 0.24776,0.077703a0.721469,0.721469 0 0 1 0.221645,0.117828a0.785868,0.785868 0 0 1 0.195531,0.156686a1.326376,1.326376 0 0 1 0.391702,0.926131a1.35343,1.35343 0 0 1 -0.391702,0.926131a1.241433,1.241433 0 0 1 -0.195531,0.156046a0.721469,0.721469 0 0 1 -0.221645,0.117828a0.805225,0.805225 0 0 1 -0.24776,0.078343a1.635509,1.635509 0 0 1 -0.247707,0.026036z"
        />
    </g>
    <text
        x="8.166667"
        y="269.645157"
        transform="rotate(-10 59.36718749999928,260.9810791015624)"
        font-weight="bold"
        font-family="'Trebuchet MS', Gadget, sans-serif"
        font-size="24"
        stroke-width="0"
        stroke="#000"
        fill="#00bf00"
    >
        Primitive
    </text>
    <text
        x="229.166667"
        y="269.645157"
        transform="rotate(10 278.69531250000045,260.9765625000001)"
        font-weight="bold"
        font-family="'Trebuchet MS', Gadget, sans-serif"
        font-size="24"
        stroke-width="0"
        stroke="#000"
        fill="#ff7f00"
    >
        Function
    </text>
</svg>
