<svg xmlns="http://www.w3.org/2000/svg" viewBox="130 0 86 106" width="86" height="106">
    <g transform="matrix(2.975489251546475,0,0,2.975489251546475,56.18969800092418,28.229200146750372)">
        <path
            fill="#ad8064"
            d="m39.262515,-8.218869a10.65,10.65 0 0 1 8.09,3.92a8.42,8.42 0 0 1 2.4,5.79l-0.21,4c1.76,-0.53 2.75,0.08 2,4.31c-0.28,1.6 -0.89,3.87 -2.28,4a32.21,32.21 0 0 1 -0.51,3.66c-0.37,2 -2.24,3.88 -5.13,6.06a7.64,7.64 0 0 1 -4.36,1.08a7.68,7.68 0 0 1 -4.36,-1.08c-2.89,-2.18 -4.76,-4.06 -5.13,-6.06q-0.34,-1.82 -0.51,-3.66c-1.39,-0.13 -2,-2.4 -2.28,-4c-0.75,-4.23 0.24,-4.84 2,-4.31l-0.21,-4a8.46,8.46 0 0 1 2.4,-5.79a10.68,10.68 0 0 1 8.09,-3.92z"
        />
        <path
            fill="#a0775c"
            d="m49.502515,5.461131l0.2,-4a8.49,8.49 0 0 0 -2.39,-5.79a11,11 0 0 0 -8.05,-3.89a11,11 0 0 0 -3.08,0.55c0,3.58 0.11,9.68 0.11,11.08c0,2 -2,2 -2,3a3.55,3.55 0 0 1 3,2l1.5,0a0.5,0.5 0 0 1 0.5,0.5l0,1.72a1.44,1.44 0 0 0 0.59,1.17a1,1 0 0 1 -0.62,1.81c-0.74,0 -1,-0.5 -2,-0.5a1.06,1.06 0 0 0 -0.85,0.46a0.24,0.24 0 0 0 0,0.22a0.22,0.22 0 0 0 0.19,0.12c1.64,0.07 1.36,0.61 2.68,0.63l0,4.37a0.51,0.51 0 0 0 0.5,0.5a1.5,1.5 0 0 1 0,3l-1.52,0a2,2 0 0 0 -2,1.71l0,0.09a6.69,6.69 0 0 0 2.94,0.39a6.63,6.63 0 0 0 4.39,-1.13c2.89,-2.18 4.76,-4.1 5.12,-6.06a31.63,31.63 0 0 0 0.55,-3.63c1.4,-0.11 2,-2.38 2.28,-4c0.72,-4.24 -0.28,-4.85 -2.04,-4.32z"
        />
        <path
            fill="#a0775c"
            d="m30.502515,11.991131a2,2 0 0 1 -0.58,-1.41l0,-2.17c0,-2.51 -0.42,-2.92 -1,-2.92c-1.76,-0.53 -2.75,0.08 -2,4.31c0.28,1.6 0.89,3.87 2.28,4q0.16,1.85 0.51,3.66c0.28,1.51 1.41,3 3.19,4.5l0,-5.89a4,4 0 0 0 -1.15,-2.86l-1.25,-1.22z"
        />
        <path
            fill="#916953"
            d="m49.502515,5.461131c-0.83,0.44 -0.68,0.72 -0.68,1.27l-0.15,3.85a2,2 0 0 1 -0.59,1.41l-1.24,1.22a4,4 0 0 0 -1.17,2.83l0,5.73c1.71,-1.52 2.8,-3 3.06,-4.39a31.63,31.63 0 0 0 0.53,-3.6c1.4,-0.11 2,-2.38 2.28,-4c0.72,-4.24 -0.28,-4.85 -2.04,-4.32z"
        />
        <path
            stroke="#333"
            fill="none"
            stroke-linecap="round"
            stroke-linejoin="round"
            d="m37.512515,7.851131a3,3 0 0 1 3.42,0l0,0"
        />
        <ellipse fill="#333" ry="2.66" rx="3.42" cy="8.561131" cx="34.622515" />
        <ellipse fill="#333" ry="2.66" rx="3.42" cy="8.561131" cx="43.792515" />
        <ellipse fill="#3a3a3a" ry="1.34" rx="1.72" cy="8.991131" cx="35.582515" />
        <ellipse fill="#3a3a3a" ry="1.34" rx="1.72" cy="8.991131" cx="44.522515" />
        <path
            stroke="#674848"
            fill="none"
            stroke-linecap="round"
            stroke-miterlimit="10"
            d="m36.672515,13.741131a2.64,2.64 0 0 1 1.25,0.32l0,0a2.58,2.58 0 0 0 2.5,0l0,0a2.61,2.61 0 0 1 1.25,-0.32"
        />
        <path
            fill="#916953"
            d="m40.312515,16.141131a0.63,0.63 0 0 0 -0.45,0l-0.68,0.31l-0.68,-0.24a0.63,0.63 0 0 0 -0.45,0a6.21,6.21 0 0 0 -2.56,1.38l0,0l1,1.11a1.91,1.91 0 0 0 1.4,0.61l2.57,0a1.89,1.89 0 0 0 1.39,-0.61l1,-1.11a6.21,6.21 0 0 0 -2.54,-1.45z"
        />
        <path
            stroke="#674848"
            fill="none"
            stroke-linecap="round"
            stroke-miterlimit="10"
            d="m42.412515,17.511131c-1,0 -1.75,-0.41 -3.22,0l0,0c-1.35,-0.45 -2.25,0 -3.26,0"
        />
        <path
            stroke="#333"
            fill="none"
            stroke-linecap="round"
            stroke-linejoin="round"
            d="m39.262515,-8.218869a10.65,10.65 0 0 1 8.09,3.92a8.42,8.42 0 0 1 2.4,5.79l-0.21,4c1.76,-0.53 2.75,0.08 2,4.31c-0.28,1.6 -0.89,3.87 -2.28,4a32.21,32.21 0 0 1 -0.51,3.66c-0.37,2 -2.24,3.88 -5.13,6.06a7.64,7.64 0 0 1 -4.36,1.08a7.68,7.68 0 0 1 -4.36,-1.08c-2.89,-2.18 -4.76,-4.06 -5.13,-6.06q-0.34,-1.82 -0.51,-3.66c-1.39,-0.13 -2,-2.4 -2.28,-4c-0.75,-4.23 0.24,-4.84 2,-4.31l-0.21,-4a8.46,8.46 0 0 1 2.4,-5.79a10.68,10.68 0 0 1 8.09,-3.92z"
        />
    </g>
</svg>
